<svg height="64" viewBox="0 0 64 64" width="64" xmlns="http://www.w3.org/2000/svg"><path d="m0 0h64v64h-64z" fill="#2367dc"/><g fill="#fff" transform="translate(6.621 6.678)"><path d="m47.072 3.968a.466.466 0 0 0 -.348-.359c-5.744-1.409-19.017 3.6-26.207 10.791a31.081 31.081 0 0 0 -3.495 4.129 13.005 13.005 0 0 0 -6.325.792c-5.332 2.344-6.884 8.468-7.317 11.1a.946.946 0 0 0 1.035 1.1l8.563-.94a19.037 19.037 0 0 0 .116 1.932 1.916 1.916 0 0 0 .56 1.172l3.315 3.315a1.916 1.916 0 0 0 1.172.56 19 19 0 0 0 1.922.116l-.94 8.553a.946.946 0 0 0 1.1 1.035c2.629-.422 8.764-1.975 11.1-7.307a13.064 13.064 0 0 0 .8-6.3 31.131 31.131 0 0 0 4.139-3.495c7.22-7.188 12.193-20.162 10.81-26.194zm-17.232 16.883a4.51 4.51 0 1 1 6.378 0 4.506 4.506 0 0 1 -6.378 0z"/><path d="m15.522 28.466a4.006 4.006 0 0 1 -2.091.845 2.842 2.842 0 0 1 -3.273-3.273 3.927 3.927 0 0 1 .834-2.08l.008-.011a.353.353 0 0 0 -.3-.6 4.854 4.854 0 0 0 -2.84 1.383c-1.9 1.9-2.08 8.954-2.08 8.954s7.064-.18 8.964-2.08a4.822 4.822 0 0 0 1.383-2.84.361.361 0 0 0 -.605-.298z" transform="translate(1.215 10.019)"/></g></svg>