<svg fill="none" height="56" viewBox="0 0 211 56" width="211" xmlns="http://www.w3.org/2000/svg" xmlns:xlink="http://www.w3.org/1999/xlink"><clipPath id="a"><path d="m0 0h132.512v55.588h-132.512z"/></clipPath><g fill="#2266dc"><g clip-path="url(#a)" stroke="#2266dc"><path d="m34.626 55.089c-3.0159 0-5.9083-1.198-8.0409-3.3306-2.1325-2.1326-3.3306-5.025-3.3306-8.0409s1.1981-5.9083 3.3306-8.0408c2.1326-2.1326 5.025-3.3307 8.0409-3.3307 1.245-.0061 2.4818.2009 3.657.612.284.1013.5162.3113.6454.5838s.1449.5852.0436.8692c-.1013.2841-.3113.5162-.5838.6454-.2725.1293-.5852.1449-.8692.0436-.9298-.3243-1.9083-.4866-2.893-.48-1.7998 0-3.5592.5337-5.0557 1.5336-1.4965 1-2.6629 2.4212-3.3516 4.084-.6888 1.6628-.869 3.4925-.5179 5.2577.3512 1.7653 1.2179 3.3867 2.4905 4.6594 1.2727 1.2726 2.8941 2.1393 4.6594 2.4905 1.7652.3511 3.5949.1709 5.2577-.5179 1.6628-.6887 3.084-1.8551 4.084-3.3516.9999-1.4965 1.5336-3.2559 1.5336-5.0557.0066-.9847-.1557-1.9632-.48-2.893-.0502-.1406-.0722-.2898-.0647-.4389.0075-.1492.0443-.2954.1083-.4303.0639-.1349.1539-.2559.2646-.3561.1108-.1001.2401-.1775.3808-.2277.1406-.0501.2898-.0721.4389-.0646.1492.0074.2954.0442.4303.1082s.2559.1539.3561.2646c.1001.1108.1775.2402.2277.3808.4111 1.1752.6181 2.412.612 3.657-.004 3.0149-1.2037 5.9051-3.3361 8.0365-2.1323 2.1314-5.023 3.3299-8.0379 3.3325z"/><path d="m34.627 48.266c-.8995.0001-1.7789-.2667-2.5268-.7664-.748-.4997-1.3309-1.21-1.6752-2.0411-.3442-.8311-.4343-1.7455-.2588-2.6278.1755-.8822.6087-1.6926 1.2448-2.3287.2132-.2132.5024-.333.804-.333.3015 0 .5908.1198.804.333.2132.2133.333.5025.333.804 0 .3016-.1198.5908-.333.804-.4269.4264-.6669 1.0048-.6673 1.6081s.239 1.1821.6653 1.6089c.4263.4269 1.0048.6669 1.6081.6673s1.182-.2389 1.6089-.6653c.2168-.1892.4972-.2892.7848-.2799.2876.0094.561.1275.7649.3305.204.2029.3235.4757.3343.7632.0108.2876-.0878.5685-.276.7862-.4214.4237-.9226.7597-1.4746.9885s-1.1439.3459-1.7414.3445z"/><path d="m34.626 44.854c-.225.0005-.445-.0658-.6323-.1905-.1872-.1248-.3332-.3023-.4194-.5101s-.1088-.4365-.0649-.6571c.0439-.2207.1524-.4233.3116-.5823l7.96-7.96c.1056-.1056.2309-.1893.3689-.2464.1379-.0572.2858-.0866.4351-.0866s.2972.0294.4351.0866c.138.0571.2633.1408.3689.2464s.1893.231.2465.3689c.0571.138.0865.2858.0865.4351s-.0294.2972-.0865.4352c-.0572.1379-.1409.2632-.2465.3688l-7.96 7.959c-.2122.2123-.4999.3317-.8.332z"/><path d="m48.272 36.895h-5.686c-.3015-.0002-.5905-.1201-.8037-.3333-.2132-.2131-.333-.5022-.3333-.8037v-5.686c.0003-.3015.1196-.5908.332-.805l5.686-5.686c.1592-.1589.362-.2671.5826-.3108.2207-.0438.4494-.0212.6572.065.2078.0861.3854.2319.5104.4189.125.1871.1917.407.1918.6319v4.549h4.549c.225.0001.4449.0669.6319.1918.187.125.3328.3027.419.5105.0861.2078.1088.4365.065.6571-.0438.2207-.152.4234-.3109.5826l-5.686 5.686c-.2141.2124-.5034.3317-.805.332zm-4.549-2.274h4.078l3.411-3.411h-2.94c-.3015-.0002-.5905-.1201-.8037-.3333-.2132-.2131-.333-.5022-.3333-.8037v-2.941l-3.412 3.416z"/><path d="m20.981 37.372c-.3017 0-.5911-.1193-.805-.332l-8.119-8.119c-.2056-.2054-.3247-.4818-.3327-.7724s.0957-.5731.2897-.7896l10.96-12.281c.0758-.109.1679-.2058.273-.287 7.795-8.93097 19.91-14.487974 30.736-14.287974.2932.0069.5724.12671.7794.334445.2069.207739.3257.487359.3316.780559.023 6.11754-1.4315 12.15017-4.24 17.58497-.1366.266-.3725.4674-.6566.5606s-.5935.0706-.861-.0628c-.2676-.1335-.4718-.367-.5682-.65-.0965-.283-.0775-.5927.0528-.8618 2.4595-4.7783 3.8258-10.04366 4-15.41497-9.864.177-20.964 5.551-27.953 13.62897-.0474.0557-.1007.106-.159.15l-10.28 11.52 7.357 7.357c.1589.1592.2671.362.3109.5826.0437.2207.0211.4494-.065.6572-.0862.2078-.232.3854-.419.5104-.1871.125-.4069.1918-.6319.1918z"/><path d="m15.389 26.461c-.0539.0008-.1077-.0029-.161-.011l-10.888-1.561c-.21036-.0296-.4082-.1176-.5711-.254-.1629-.1363-.28433-.3156-.35054-.5175-.06621-.2018-.07455-.4182-.02406-.6245.05049-.2064.15778-.3945.3097-.543 5.38941-5.3844 12.6888-8.4199 20.307-8.445.3016 0 .5908.1198.804.3331.2132.2132.333.5024.333.8039 0 .3016-.1198.5908-.333.804s-.5024.333-.804.333c-6.2093.0177-12.216 2.2116-16.975 6.2l8.517 1.221c.2854.04.5449.1868.7262.4108.1812.224.2706.5085.2502.7959-.0205.2874-.1493.5564-.3604.7525s-.4889.3047-.777.3038z"/><path d="m39.478 21.807c-1.3147-.0011-2.5884-.4581-3.604-1.293s-1.7102-1.9961-1.9657-3.2858c-.2554-1.2897-.0558-2.628.5649-3.787.6206-1.159 1.624-2.067 2.839-2.5692s2.5666-.5676 3.8244-.1851c1.2579.3826 2.3442 1.1894 3.0738 2.2831.7297 1.0937 1.0576 2.4065.9279 3.7148s-.7091 2.5312-1.6393 3.4602c-.5277.5283-1.1546.947-1.8447 1.2322-.69.2853-1.4296.4313-2.1763.4298zm0-9.093c-.7886.0003-1.5526.2738-2.1621.7742s-1.0267 1.1965-1.1805 1.9699c-.1538.7735-.0347 1.5763.337 2.2717.3717.6955.9729 1.2406 1.7014 1.5425s1.5391.3419 2.2938.1132c.7546-.2286 1.4067-.7119 1.8451-1.3674.4383-.6555.6359-1.4426.559-2.2274s-.4235-1.5187-.9807-2.0767c-.3164-.3175-.6925-.5693-1.1066-.7409-.4142-.1716-.8581-.2597-1.3064-.2591zm3.216 6.627h.023z"/><path d="m1.64899 55.089c-.1773.0004-.35223-.0408-.51076-.1202-.158532-.0794-.296252-.1948-.402122-.3371-.105871-.1422-.176946-.3072-.20753-.4819-.030583-.1746-.019824-.354.031416-.5238.373-1.244 3.713996-12.237 6.151996-14.671.6486-.6712 1.42438-1.2064 2.28206-1.5746.85769-.3681 1.78015-.5618 2.71345-.5696.9333-.0079 1.8589.1702 2.7226.5239.8638.3537 1.6484.8759 2.3082 1.5361.6598.6601 1.1815 1.4451 1.5347 2.3091.3531.864.5307 1.7896.5223 2.7229s-.2026 1.8557-.5713 2.7131c-.3687.8575-.9044 1.6329-1.576 2.2811-2.436 2.432-13.42701 5.773-14.67101 6.146-.10653.0294-.21649.0445-.327.045zm10.03001-15.918c-.6251-.0014-1.2443.1207-1.82214.3592-.5778.2385-1.1028.5889-1.54487 1.0308-1.312 1.315-3.5 7.184-4.937 11.662 4.476-1.442 10.34801-3.625 11.66001-4.937.6655-.6643 1.1189-1.5112 1.3028-2.4334.184-.9221.0902-1.8782-.2694-2.747-.3597-.8689-.969-1.6115-1.7509-2.1339-.7819-.5223-1.7012-.801-2.6415-.8007z"/></g><path d="m79.8281 33.0312c0-.8854-.3125-1.5624-.9375-2.0312-.625-.4792-1.75-.9792-3.375-1.5-1.625-.5312-2.9114-1.0521-3.8594-1.5625-2.5833-1.3958-3.875-3.276-3.875-5.6406 0-1.2292.3438-2.3229 1.0313-3.2813.6979-.9687 1.6927-1.7239 2.9844-2.2656 1.3021-.5417 2.7604-.8125 4.375-.8125 1.625 0 3.0729.2969 4.3437.8906 1.2709.5834 2.2552 1.4115 2.9532 2.4844.7083 1.0729 1.0624 2.2917 1.0624 3.6563h-4.6874c0-1.0417-.3282-1.849-.9844-2.4219-.6563-.5834-1.5782-.875-2.7656-.875-1.1459 0-2.0365.2448-2.6719.7343-.6354.4792-.9531 1.1146-.9531 1.9063 0 .7396.3697 1.3594 1.1093 1.8594.75.5 1.849.9687 3.2969 1.4062 2.6667.8021 4.6094 1.7969 5.8281 2.9844 1.2188 1.1875 1.8281 2.6667 1.8281 4.4375 0 1.9688-.7447 3.5156-2.2343 4.6406-1.4896 1.1146-3.4948 1.6719-6.0157 1.6719-1.75 0-3.3437-.3177-4.7812-.9531-1.4375-.6459-2.5365-1.5261-3.2969-2.6406-.75-1.1146-1.125-2.4063-1.125-3.875h4.7031c0 2.5104 1.5 3.7656 4.5 3.7656 1.1146 0 1.9844-.224 2.6094-.6719.625-.4583.9375-1.0937.9375-1.9063zm17.3907 5.9688c-.2084-.4062-.3594-.9115-.4532-1.5156-1.0937 1.2187-2.5156 1.8281-4.2656 1.8281-1.6562 0-3.0312-.4792-4.125-1.4375-1.0833-.9583-1.625-2.1667-1.625-3.625 0-1.7917.6615-3.1667 1.9844-4.125 1.3333-.9583 3.2552-1.4427 5.7656-1.4531h2.0781v-.9688c0-.7812-.2031-1.4062-.6093-1.875-.3959-.4687-1.0261-.7031-1.8907-.7031-.7604 0-1.3593.1823-1.7969.5469-.427.3646-.6406.8646-.6406 1.5h-4.5156c0-.9792.3021-1.8854.9062-2.7188.6042-.8333 1.4584-1.4843 2.5626-1.9531 1.1041-.4792 2.3437-.7188 3.7187-.7188 2.0833 0 3.7344.5261 4.9531 1.5782 1.2294 1.0416 1.8434 2.5104 1.8434 4.4062v7.3282c.011 1.6041.235 2.8177.672 3.6406v.2656zm-3.7344-3.1406c.6666 0 1.2812-.1459 1.8437-.4375.5625-.3021.9792-.7031 1.25-1.2031v-2.9063h-1.6875c-2.2604 0-3.4635.7813-3.6094 2.3437l-.0156.2657c0 .5625.1979 1.026.5938 1.3906.3958.3646.9375.5469 1.625.5469zm20.8906 3.1406c-.208-.4062-.359-.9115-.453-1.5156-1.094 1.2187-2.516 1.8281-4.266 1.8281-1.656 0-3.031-.4792-4.125-1.4375-1.083-.9583-1.625-2.1667-1.625-3.625 0-1.7917.662-3.1667 1.985-4.125 1.333-.9583 3.255-1.4427 5.765-1.4531h2.078v-.9688c0-.7812-.203-1.4062-.609-1.875-.396-.4687-1.026-.7031-1.891-.7031-.76 0-1.359.1823-1.796.5469-.428.3646-.641.8646-.641 1.5h-4.516c0-.9792.302-1.8854.907-2.7188.604-.8333 1.458-1.4843 2.562-1.9531 1.104-.4792 2.344-.7188 3.719-.7188 2.083 0 3.734.5261 4.953 1.5782 1.229 1.0416 1.844 2.5104 1.844 4.4062v7.3282c.01 1.6041.234 2.8177.672 3.6406v.2656zm-3.734-3.1406c.666 0 1.281-.1459 1.843-.4375.563-.3021.98-.7031 1.25-1.2031v-2.9063h-1.687c-2.261 0-3.464.7813-3.609 2.3437l-.016.2657c0 .5625.198 1.026.594 1.3906.395.3646.937.5469 1.625.5469zm23.187-2.8282c0-.8854-.312-1.5624-.937-2.0312-.625-.4792-1.75-.9792-3.375-1.5-1.625-.5312-2.912-1.0521-3.86-1.5625-2.583-1.3958-3.875-3.276-3.875-5.6406 0-1.2292.344-2.3229 1.031-3.2813.698-.9687 1.693-1.7239 2.985-2.2656 1.302-.5417 2.76-.8125 4.375-.8125 1.625 0 3.073.2969 4.344.8906 1.27.5834 2.255 1.4115 2.953 2.4844.708 1.0729 1.062 2.2917 1.062 3.6563h-4.687c0-1.0417-.328-1.849-.985-2.4219-.656-.5834-1.578-.875-2.765-.875-1.146 0-2.037.2448-2.672.7343-.636.4792-.953 1.1146-.953 1.9063 0 .7396.37 1.3594 1.109 1.8594.75.5 1.849.9687 3.297 1.4062 2.667.8021 4.609 1.7969 5.828 2.9844s1.828 2.6667 1.828 4.4375c0 1.9688-.745 3.5156-2.234 4.6406-1.49 1.1146-3.495 1.6719-6.016 1.6719-1.75 0-3.343-.3177-4.781-.9531-1.438-.6459-2.536-1.5261-3.297-2.6406-.75-1.1146-1.125-2.4063-1.125-3.875h4.703c0 2.5104 1.5 3.7656 4.5 3.7656 1.115 0 1.985-.224 2.61-.6719.625-.4583.937-1.0937.937-1.9063zm12.578 2.2032h9.953v3.7656h-14.64v-22.75h4.687zm22.156 3.7656c-.208-.4062-.359-.9115-.453-1.5156-1.093 1.2187-2.515 1.8281-4.265 1.8281-1.656 0-3.032-.4792-4.125-1.4375-1.084-.9583-1.625-2.1667-1.625-3.625 0-1.7917.661-3.1667 1.984-4.125 1.333-.9583 3.255-1.4427 5.766-1.4531h2.078v-.9688c0-.7812-.203-1.4062-.61-1.875-.395-.4687-1.026-.7031-1.89-.7031-.761 0-1.36.1823-1.797.5469-.427.3646-.641.8646-.641 1.5h-4.515c0-.9792.302-1.8854.906-2.7188.604-.8333 1.458-1.4843 2.563-1.9531 1.104-.4792 2.343-.7188 3.718-.7188 2.084 0 3.735.5261 4.953 1.5782 1.23 1.0416 1.844 2.5104 1.844 4.4062v7.3282c.011 1.6041.235 2.8177.672 3.6406v.2656zm-3.734-3.1406c.667 0 1.281-.1459 1.844-.4375.562-.3021.979-.7031 1.25-1.2031v-2.9063h-1.688c-2.26 0-3.463.7813-3.609 2.3437l-.016.2657c0 .5625.198 1.026.594 1.3906s.938.5469 1.625.5469zm15.25-13.7656.141 1.9531c1.208-1.5104 2.828-2.2657 4.859-2.2657 1.792 0 3.125.5261 4 1.5782s1.323 2.625 1.344 4.7187v10.9219h-4.516v-10.8125c0-.9583-.208-1.651-.625-2.0781-.416-.4375-1.109-.6563-2.078-.6563-1.271 0-2.224.5417-2.859 1.625v11.9219h-4.516v-16.9062zm13.078 8.3281c0-2.6354.589-4.7344 1.766-6.2969 1.187-1.5625 2.807-2.3438 4.859-2.3438 1.646 0 3.005.6146 4.078 1.8438v-8.625h4.532v24h-4.079l-.218-1.7969c-1.125 1.4063-2.573 2.1094-4.344 2.1094-1.99 0-3.589-.7813-4.797-2.3437-1.198-1.573-1.797-3.7553-1.797-6.5469zm4.516.3281c0 1.5833.276 2.7969.828 3.6406.552.8438 1.354 1.2656 2.406 1.2656 1.396 0 2.38-.5885 2.953-1.7656v-6.6718c-.562-1.1771-1.536-1.7657-2.921-1.7657-2.178 0-3.266 1.7657-3.266 5.2969z"/></g></svg>