<svg height="86" viewBox="0 0 86 86" width="86" xmlns="http://www.w3.org/2000/svg" xmlns:xlink="http://www.w3.org/1999/xlink"><clipPath id="a"><path d="m917 4402h86v86h-86z"/></clipPath><g clip-path="url(#a)" transform="translate(-917 -4402)"><g fill="#286ade" transform="translate(917.001 4402.013)"><path d="m42.492 68.324a1.8 1.8 0 0 1 -1.268-.523l-23.041-23.038a1.794 1.794 0 0 1 -.072-2.461l17.269-19.344a2.13 2.13 0 0 1 .412-.434c12.278-14.079 31.188-22.915 48.439-22.524a1.793 1.793 0 0 1 1.756 1.748c.283 12.214-4.213 25.735-12.336 37.092a1.79 1.79 0 1 1 -2.909-2.085c7.291-10.2 11.494-22.188 11.673-33.177-15.546.272-33.037 8.738-44.047 21.457a1.762 1.762 0 0 1 -.251.24l-16.194 18.155 20.644 20.64 4.726-4.213a1.791 1.791 0 0 1 2.372 2.683l-5.976 5.331a1.806 1.806 0 0 1 -1.2.451z"/><path d="m49.342 81.426a1.624 1.624 0 0 1 -.509-.079 1.772 1.772 0 0 1 -1.275-1.376l-2.437-17.126a1.914 1.914 0 0 1 1.784-1.935 1.665 1.665 0 0 1 1.781 1.644v.036l1.881 13.138c.813-.96 1.566-1.942 2.279-2.956a1.791 1.791 0 1 1 2.931 2.06 45.523 45.523 0 0 1 -5.037 6 2.015 2.015 0 0 1 -1.4.588z"/><path d="m23.435 40.887a1.562 1.562 0 0 1 -.258-.018l-17.151-2.458a1.792 1.792 0 0 1 -1.01-3.042 44.876 44.876 0 0 1 32-13.317 1.791 1.791 0 1 1 0 3.583 41.2 41.2 0 0 0 -26.755 9.765l13.428 1.924a1.791 1.791 0 0 1 -.254 3.565z"/><path d="m61.384 33.56a8.957 8.957 0 0 1 -6.334-15.291 9.169 9.169 0 0 1 12.665 0 8.957 8.957 0 0 1 -6.331 15.291zm0-14.328a5.374 5.374 0 0 0 -3.8 9.175 5.5 5.5 0 0 0 7.6 0 5.382 5.382 0 0 0 0-7.6 5.324 5.324 0 0 0 -3.8-1.573zm5.066 10.44h.036z"/><path d="m1.791 85.987a1.788 1.788 0 0 1 -1.716-2.3c.584-1.964 5.847-19.287 9.681-23.117a11.074 11.074 0 1 1 15.66 15.66c-3.834 3.834-21.149 9.1-23.112 9.684a1.9 1.9 0 0 1 -.512.072zm15.8-25.076a7.485 7.485 0 0 0 -5.3 2.189c-2.067 2.071-5.507 11.318-7.775 18.369 7.051-2.271 16.3-5.711 18.369-7.778a7.483 7.483 0 0 0 -5.3-12.78z"/><path d="m73.171 85.987h-6.614c-1.924 0-3.995-1.447-3.995-4.625v-4.673a6.549 6.549 0 0 0 -2.676-5.089 15.877 15.877 0 0 1 -6.141-12.9 16.2 16.2 0 0 1 15.883-15.707 16 16 0 0 1 10.443 28.422 7.375 7.375 0 0 0 -2.906 5.639v4.946a3.994 3.994 0 0 1 -3.995 3.984zm-3.307-39.411h-.19a12.738 12.738 0 0 0 -12.346 12.2 12.322 12.322 0 0 0 4.772 10.003 10.1 10.1 0 0 1 4.049 7.911v4.672c0 .107.011 1.043.412 1.043h6.614a.407.407 0 0 0 .412-.4v-4.947a10.938 10.938 0 0 1 4.228-8.42 12.437 12.437 0 0 0 -7.947-22.063z"/><path d="m75.374 79.419h-11.02a1.791 1.791 0 1 1 0-3.583h11.02a1.791 1.791 0 1 1 0 3.583z"/></g></g></svg>