<svg height="86" viewBox="0 0 86 86" width="86" xmlns="http://www.w3.org/2000/svg" xmlns:xlink="http://www.w3.org/1999/xlink"><clipPath id="a"><path d="m517 4402h86v86h-86z"/></clipPath><g clip-path="url(#a)" transform="translate(-517 -4402)"><g fill="#286ade" transform="translate(517.001 4402.01)"><path d="m53.743 85.988a17.914 17.914 0 1 1 0-35.828 17.192 17.192 0 0 1 5.761.964 1.792 1.792 0 0 1 -1.204 3.376 13.56 13.56 0 0 0 -4.557-.756 14.331 14.331 0 1 0 14.331 14.33 13.56 13.56 0 0 0 -.756-4.557 1.792 1.792 0 1 1 3.375-1.2 17.192 17.192 0 0 1 .964 5.761 17.935 17.935 0 0 1 -17.914 17.91z"/><path d="m53.743 75.24a7.165 7.165 0 0 1 -5.066-12.232 1.791 1.791 0 0 1 2.533 2.533 3.582 3.582 0 1 0 5.066 5.066 1.791 1.791 0 1 1 2.533 2.533 7.123 7.123 0 0 1 -5.066 2.1z"/><path d="m53.743 69.866a1.79 1.79 0 0 1 -1.268-3.056l12.54-12.54a1.791 1.791 0 0 1 2.532 2.53l-12.54 12.54a1.785 1.785 0 0 1 -1.264.526z"/><path d="m75.24 57.326h-8.957a1.792 1.792 0 0 1 -1.791-1.791v-8.958a1.8 1.8 0 0 1 .523-1.268l8.957-8.957a1.793 1.793 0 0 1 3.06 1.268v7.166h7.168a1.793 1.793 0 0 1 1.268 3.06l-8.96 8.954a1.8 1.8 0 0 1 -1.268.526zm-7.166-3.583h6.426l5.374-5.374h-4.634a1.792 1.792 0 0 1 -1.791-1.791v-4.634l-5.374 5.374z"/><path d="m32.246 58.078a1.8 1.8 0 0 1 -1.268-.523l-12.791-12.791a1.79 1.79 0 0 1 -.068-2.461l17.265-19.348a2.043 2.043 0 0 1 .43-.451c12.286-14.07 31.368-22.826 48.422-22.504a1.793 1.793 0 0 1 1.752 1.752 59.854 59.854 0 0 1 -6.682 27.71 1.79 1.79 0 1 1 -3.2-1.6 57.107 57.107 0 0 0 6.307-24.283c-15.546.272-33.034 8.739-44.044 21.458a1.569 1.569 0 0 1 -.251.236l-16.195 18.155 11.591 11.59a1.793 1.793 0 0 1 -1.268 3.06z"/><path d="m23.435 40.887a1.546 1.546 0 0 1 -.254-.018l-17.151-2.457a1.792 1.792 0 0 1 -1-3.049 45.475 45.475 0 0 1 31.988-13.31 1.791 1.791 0 1 1 0 3.583 41.819 41.819 0 0 0 -26.746 9.764l13.418 1.923a1.792 1.792 0 0 1 -.254 3.565z"/><path d="m61.385 33.557a8.954 8.954 0 1 1 6.334-2.619 8.929 8.929 0 0 1 -6.334 2.619zm0-14.324a5.371 5.371 0 1 0 3.8 1.569 5.362 5.362 0 0 0 -3.8-1.569zm5.066 10.44h.036z"/><path d="m1.791 85.988a1.788 1.788 0 0 1 -1.716-2.3c.588-1.96 5.851-19.279 9.684-23.113a11.074 11.074 0 0 1 15.661 15.657c-3.834 3.834-21.153 9.1-23.113 9.684a1.969 1.969 0 0 1 -.516.072zm15.8-25.076a7.479 7.479 0 0 0 -5.3 2.189c-2.067 2.071-5.507 11.318-7.778 18.373 7.051-2.272 16.3-5.711 18.369-7.778a7.486 7.486 0 0 0 -5.292-12.784z"/></g></g></svg>