<?xml version="1.0" standalone="no"?>
<!DOCTYPE svg PUBLIC "-//W3C//DTD SVG 20010904//EN"
 "http://www.w3.org/TR/2001/REC-SVG-20010904/DTD/svg10.dtd">
<svg version="1.0" xmlns="http://www.w3.org/2000/svg"
 width="48.000000pt" height="48.000000pt" viewBox="0 0 48.000000 48.000000"
 preserveAspectRatio="xMidYMid meet">

<g transform="translate(0.000000,48.000000) scale(0.100000,-0.100000)"
fill="#000000" stroke="none">
<path d="M172 429 c-48 -14 -109 -80 -123 -131 -23 -89 12 -182 88 -229 57
-36 154 -34 210 3 62 41 88 90 88 168 0 77 -26 127 -85 166 -43 29 -125 39
-178 23z m41 -119 c10 -16 22 -30 27 -30 5 0 17 14 27 30 17 29 43 41 43 20 0
-6 -12 -28 -26 -50 l-27 -40 27 -40 c14 -22 26 -44 26 -50 0 -21 -26 -9 -43
20 -10 17 -22 30 -27 30 -5 0 -17 -13 -27 -30 -17 -29 -43 -41 -43 -20 0 6 12
28 26 50 l27 40 -27 40 c-14 22 -26 44 -26 50 0 21 26 9 43 -20z"/>
</g>
</svg>
