<?xml version="1.0" standalone="no"?>
<!DOCTYPE svg PUBLIC "-//W3C//DTD SVG 20010904//EN"
 "http://www.w3.org/TR/2001/REC-SVG-20010904/DTD/svg10.dtd">
<svg version="1.0" xmlns="http://www.w3.org/2000/svg"
 width="32.000000pt" height="32.000000pt" viewBox="0 0 32.000000 32.000000"
 preserveAspectRatio="xMidYMid meet">

<g transform="translate(0.000000,32.000000) scale(0.100000,-0.100000)"
fill="#000000" stroke="none">
<path d="M65 249 c-14 -22 14 -30 101 -27 71 2 89 6 89 18 0 12 -18 16 -92 18
-60 2 -94 -1 -98 -9z"/>
<path d="M65 169 c-14 -22 14 -30 101 -27 71 2 89 6 89 18 0 12 -18 16 -92 18
-60 2 -94 -1 -98 -9z"/>
<path d="M65 89 c-14 -22 14 -30 101 -27 71 2 89 6 89 18 0 12 -18 16 -92 18
-60 2 -94 -1 -98 -9z"/>
</g>
</svg>
